<svg width="390" height="389" xmlns="http://www.w3.org/2000/svg" xmlns:xlink="http://www.w3.org/1999/xlink" xml:space="preserve" overflow="hidden"><defs><clipPath id="clip0"><rect x="1586" y="248" width="390" height="389"/></clipPath></defs><g clip-path="url(#clip0)" transform="translate(-1586 -248)"><rect x="1586" y="248" width="390" height="389" fill="#FFFFFF"/><rect x="1645" y="291" width="272" height="302" stroke="#000000" stroke-width="13.75" stroke-linejoin="round" stroke-miterlimit="10" fill="none"/><path d="M1645 356 1916.93 356" stroke="#000000" stroke-width="13.75" stroke-linejoin="round" stroke-miterlimit="10" fill="none" fill-rule="evenodd"/><path d="M1778.31 407.886C1798.16 407.886 1813.21 411.893 1823.46 419.908 1832.42 426.92 1836.91 435.185 1836.91 444.702 1829.54 444.702 1822.18 444.702 1814.81 444.702 1814.81 438.691 1812.25 433.682 1807.13 429.675 1801.37 425.167 1792.4 422.913 1780.23 422.913 1766.79 422.913 1757.5 424.917 1752.38 428.924 1747.9 432.43 1745.66 436.437 1745.66 440.945 1745.66 445.453 1746.94 448.709 1749.5 450.713 1752.7 453.217 1758.46 455.722 1766.79 458.226 1781.52 463.235 1798.16 468.996 1816.74 475.507 1821.86 477.01 1826.66 479.515 1831.14 483.021 1838.19 488.531 1841.71 495.042 1841.71 502.556 1841.71 512.574 1837.23 521.089 1828.26 528.102 1818.66 535.615 1802.97 539.372 1781.2 539.372 1760.06 539.372 1743.73 534.864 1732.21 525.848 1723.88 519.336 1719.72 509.819 1719.72 497.296 1727.09 497.296 1734.45 497.296 1741.81 497.296 1741.81 506.313 1744.37 512.824 1749.5 516.832 1756.54 522.341 1767.43 525.096 1782.16 525.096 1795.6 525.096 1805.53 522.592 1811.93 517.583 1817.06 513.576 1819.62 509.569 1819.62 505.561 1819.62 501.053 1817.7 497.296 1813.85 494.291 1810.65 491.787 1805.53 489.282 1798.49 486.778 1792.08 484.273 1783.76 481.268 1773.51 477.761 1761.98 473.754 1752.7 470.498 1745.66 467.994 1740.53 466.491 1736.05 464.237 1732.21 461.232 1726.44 456.724 1723.56 450.713 1723.56 443.199 1723.56 433.682 1728.05 425.417 1737.01 418.405 1745.98 411.392 1759.74 407.886 1778.31 407.886Z" fill-rule="evenodd"/><text fill="#000000" fill-opacity="0" font-family="Arial,Arial_MSFontService,sans-serif" font-size="131.486" x="1719.72" y="522.936">S</text></g></svg>