<svg width="458" height="398" xmlns="http://www.w3.org/2000/svg" xmlns:xlink="http://www.w3.org/1999/xlink" xml:space="preserve" overflow="hidden"><defs><clipPath id="clip0"><rect x="2490" y="1735" width="458" height="398"/></clipPath></defs><g clip-path="url(#clip0)" transform="translate(-2490 -1735)"><rect x="2522" y="1735" width="389" height="390" fill="#FFFFFF"/><path d="M2579 1914C2579 1842.2 2637.2 1784 2709 1784 2780.8 1784 2839 1842.2 2839 1914 2839 1985.8 2780.8 2044 2709 2044 2637.2 2044 2579 1985.8 2579 1914Z" stroke="#000000" stroke-width="13.75" stroke-miterlimit="8" fill="none" fill-rule="evenodd"/><path d="M2619.81 1821.09C2670.81 1772.03 2751.7 1772.81 2801.75 1822.86L2709.88 1914.72Z" fill-rule="evenodd"/><path d="M2800.13 2008.36C2749.13 2057.42 2668.24 2056.63 2618.19 2006.59L2710.06 1914.72Z" fill-rule="evenodd"/><path d="M2.89036e-05-10.3125 77.2003-10.3123 77.2003 10.3127-2.89036e-05 10.3125ZM66.8879-30.9373 128.763 0.000360892 66.8877 30.9377Z" transform="matrix(-1 0 0 1 2682.26 2069.5)"/><path d="M2754.62 2057.19 2832.27 2058.1 2832.03 2078.73 2754.38 2077.81ZM2822.2 2037.36 2883.71 2069.02 2821.47 2099.23Z"/></g></svg>