<svg width="391" height="390" xmlns="http://www.w3.org/2000/svg" xmlns:xlink="http://www.w3.org/1999/xlink" xml:space="preserve" overflow="hidden"><g transform="translate(-2462 -1016)"><rect x="2462" y="1016" width="390" height="390" fill="#FFFFFF"/><rect x="2495" y="1178" width="334" height="111" stroke="#000000" stroke-width="13.75" stroke-miterlimit="8" fill="none"/><path d="M2496 1233.5C2496 1202.85 2520.85 1178 2551.5 1178 2582.15 1178 2607 1202.85 2607 1233.5 2607 1264.15 2582.15 1289 2551.5 1289 2520.85 1289 2496 1264.15 2496 1233.5Z" stroke="#000000" stroke-width="13.75" stroke-miterlimit="8" fill="none" fill-rule="evenodd"/><path d="M2607 1233.5C2607 1202.85 2632.07 1178 2663 1178 2693.93 1178 2719 1202.85 2719 1233.5 2719 1264.15 2693.93 1289 2663 1289 2632.07 1289 2607 1264.15 2607 1233.5Z" stroke="#000000" stroke-width="13.75" stroke-miterlimit="8" fill="none" fill-rule="evenodd"/><path d="M2719 1233.5C2719 1202.85 2743.85 1178 2774.5 1178 2805.15 1178 2830 1202.85 2830 1233.5 2830 1264.15 2805.15 1289 2774.5 1289 2743.85 1289 2719 1264.15 2719 1233.5Z" stroke="#000000" stroke-width="13.75" stroke-miterlimit="8" fill="none" fill-rule="evenodd"/><text font-family="Yu Gothic,Yu Gothic_MSFontService,sans-serif" font-weight="700" font-size="83" transform="matrix(1 0 0 1 2637.6 1271)">B</text><text font-family="Yu Gothic,Yu Gothic_MSFontService,sans-serif" font-weight="700" font-size="83" transform="matrix(1 0 0 1 2751.28 1271)">F</text></g></svg>