<svg width="390" height="390" xmlns="http://www.w3.org/2000/svg" xmlns:xlink="http://www.w3.org/1999/xlink" xml:space="preserve" overflow="hidden"><defs><clipPath id="clip0"><rect x="2013" y="1016" width="390" height="390"/></clipPath></defs><g clip-path="url(#clip0)" transform="translate(-2013 -1016)"><rect x="2013" y="1016" width="390" height="390" fill="#FFFFFF"/><path d="M2071 1204.5C2071 1127.46 2133.46 1065 2210.5 1065 2287.54 1065 2350 1127.46 2350 1204.5 2350 1281.54 2287.54 1344 2210.5 1344 2133.46 1344 2071 1281.54 2071 1204.5Z" stroke="#000000" stroke-width="13.75" stroke-miterlimit="8" fill="none" fill-rule="evenodd"/><path d="M0 0 238.171 98.6535" stroke="#000000" stroke-width="13.75" stroke-miterlimit="8" fill="none" fill-rule="evenodd" transform="matrix(-1 0 0 1 2309.17 1106)"/><path d="M2309.17 1303.65 2071 1205" stroke="#000000" stroke-width="13.75" stroke-miterlimit="8" fill="none" fill-rule="evenodd"/><path d="M0 0 0.000360892 197.307" stroke="#000000" stroke-width="13.75" stroke-miterlimit="8" fill="none" fill-rule="evenodd" transform="matrix(1 0 0 -1 2309 1303.31)"/></g></svg>